<svg width="18" height="17" viewBox="0 0 18 17" fill="none" xmlns="http://www.w3.org/2000/svg">
<path d="M15.494 0H3.34242C1.97047 0 0.925171 1.04615 0.925171 2.41923V14.5808C0.925171 15.9538 1.97047 17 3.34242 17H15.494C16.866 17 17.9113 15.9538 17.9113 14.5808V2.41923C17.9113 1.04615 16.866 0 15.494 0ZM9.41821 13.6C12.2275 13.6 14.514 11.3769 14.514 8.69615C14.514 8.23846 14.4487 7.71538 14.318 7.32308H15.7553V14.2538C15.7553 14.5808 15.494 14.9077 15.102 14.9077H3.73441C3.40775 14.9077 3.0811 14.6462 3.0811 14.2538V7.25769H4.58372C4.45305 7.71538 4.38772 8.17308 4.38772 8.63077C4.32239 11.3769 6.60898 13.6 9.41821 13.6ZM9.41821 11.6385C7.58894 11.6385 6.15166 10.2 6.15166 8.43462C6.15166 6.66923 7.58894 5.23077 9.41821 5.23077C11.2475 5.23077 12.6848 6.66923 12.6848 8.43462C12.6848 10.2654 11.2475 11.6385 9.41821 11.6385ZM15.69 4.64231C15.69 5.03461 15.3633 5.36154 14.9714 5.36154H13.1421C12.7501 5.36154 12.4234 5.03461 12.4234 4.64231V2.87692C12.4234 2.48462 12.7501 2.15769 13.1421 2.15769H14.9714C15.3633 2.15769 15.69 2.48462 15.69 2.87692V4.64231Z" fill="white"/>
</svg>
