<svg width="18" height="22" viewBox="0 0 18 22" fill="none" xmlns="http://www.w3.org/2000/svg">
<path fill-rule="evenodd" clip-rule="evenodd" d="M9.0001 1.6501C7.05553 1.6501 5.18757 2.43999 3.808 3.85092C2.42794 5.26235 1.6501 7.1797 1.6501 9.18192C1.6501 12.1079 3.50389 14.9057 5.47695 17.0357C6.45105 18.0872 7.42725 18.9472 8.16056 19.5444C8.5029 19.8232 8.79118 20.0438 9.0001 20.199C9.20901 20.0438 9.4973 19.8232 9.83964 19.5444C10.5729 18.9472 11.5491 18.0872 12.5232 17.0357C14.4963 14.9057 16.3501 12.1079 16.3501 9.18192C16.3501 7.1797 15.5723 5.26235 14.1922 3.85092C12.8126 2.43999 10.9447 1.6501 9.0001 1.6501ZM9.0001 21.0001L9.36627 21.5371C9.14538 21.6877 8.85481 21.6877 8.63393 21.5371L9.0001 21.0001ZM2.87849 2.94207C4.4995 1.28422 6.7012 0.350098 9.0001 0.350098C11.299 0.350098 13.5007 1.28422 15.1217 2.94207C16.7422 4.59942 17.6501 6.84423 17.6501 9.18192C17.6501 12.6196 15.5039 15.7309 13.4769 17.9191C12.4511 19.0266 11.4273 19.928 10.6606 20.5524C10.2767 20.865 9.95603 21.1092 9.73003 21.2761C9.61701 21.3596 9.52757 21.4238 9.46565 21.4677C9.43469 21.4896 9.4106 21.5065 9.39388 21.5181L9.37437 21.5316L9.36887 21.5354L9.3672 21.5365L9.36664 21.5369C9.36644 21.537 9.36627 21.5371 9.0001 21.0001C8.63393 21.5371 8.63376 21.537 8.63355 21.5369L8.63299 21.5365L8.63133 21.5354L8.62583 21.5316L8.60632 21.5181C8.58959 21.5065 8.5655 21.4896 8.53454 21.4677C8.47263 21.4238 8.38319 21.3596 8.27016 21.2761C8.04417 21.1092 7.72348 20.865 7.33964 20.5524C6.57294 19.928 5.54914 19.0266 4.52325 17.9191C2.4963 15.7309 0.350098 12.6196 0.350098 9.18192C0.350098 6.84423 1.25797 4.59942 2.87849 2.94207Z" fill="white"/>
<path fill-rule="evenodd" clip-rule="evenodd" d="M9.00026 7.10469C7.90018 7.10469 6.98359 8.02087 6.98359 9.18196C6.98359 10.3431 7.90018 11.2592 9.00026 11.2592C10.1003 11.2592 11.0169 10.3431 11.0169 9.18196C11.0169 8.02087 10.1003 7.10469 9.00026 7.10469ZM5.68359 9.18196C5.68359 7.33059 7.15482 5.80469 9.00026 5.80469C10.8457 5.80469 12.3169 7.33059 12.3169 9.18196C12.3169 11.0333 10.8457 12.5592 9.00026 12.5592C7.15482 12.5592 5.68359 11.0333 5.68359 9.18196Z" fill="white"/>
</svg>
