<svg width="22" height="17" viewBox="0 0 22 17" fill="none" xmlns="http://www.w3.org/2000/svg">
<path fill-rule="evenodd" clip-rule="evenodd" d="M3.0001 1.6501C2.21893 1.6501 1.6501 2.24171 1.6501 2.8751V14.1251C1.6501 14.7585 2.21893 15.3501 3.0001 15.3501H19.0001C19.7813 15.3501 20.3501 14.7585 20.3501 14.1251V2.8751C20.3501 2.24171 19.7813 1.6501 19.0001 1.6501H3.0001ZM0.350098 2.8751C0.350098 1.44598 1.58127 0.350098 3.0001 0.350098H19.0001C20.4189 0.350098 21.6501 1.44598 21.6501 2.8751V14.1251C21.6501 15.5542 20.4189 16.6501 19.0001 16.6501H3.0001C1.58127 16.6501 0.350098 15.5542 0.350098 14.1251V2.8751Z" fill="white"/>
<path fill-rule="evenodd" clip-rule="evenodd" d="M0.45674 2.51854C0.653699 2.21842 1.05667 2.13478 1.3568 2.33174L11.0002 8.6602L20.6435 2.33174C20.9437 2.13478 21.3466 2.21842 21.5436 2.51854C21.7406 2.81867 21.6569 3.22164 21.3568 3.4186L11.3568 9.9811C11.1403 10.1232 10.8601 10.1232 10.6435 9.9811L0.643544 3.4186C0.343416 3.22164 0.25978 2.81867 0.45674 2.51854Z" fill="white"/>
</svg>
