<svg width="20" height="20" viewBox="0 0 20 20" fill="none" xmlns="http://www.w3.org/2000/svg">
<path fill-rule="evenodd" clip-rule="evenodd" d="M3.04348 5.08696C4.17206 5.08696 5.08696 4.17206 5.08696 3.04348C5.08696 1.9149 4.17206 1 3.04348 1C1.9149 1 1 1.9149 1 3.04348C1 4.17206 1.9149 5.08696 3.04348 5.08696ZM3.04348 6.08696C4.72434 6.08696 6.08696 4.72434 6.08696 3.04348C6.08696 1.36261 4.72434 0 3.04348 0C1.36261 0 0 1.36261 0 3.04348C0 4.72434 1.36261 6.08696 3.04348 6.08696Z" fill="white"/>
<path fill-rule="evenodd" clip-rule="evenodd" d="M3.04348 12.0435C4.17206 12.0435 5.08696 11.1286 5.08696 10C5.08696 8.87144 4.17206 7.95654 3.04348 7.95654C1.9149 7.95654 1 8.87144 1 10C1 11.1286 1.9149 12.0435 3.04348 12.0435ZM3.04348 13.0435C4.72434 13.0435 6.08696 11.6809 6.08696 10C6.08696 8.31915 4.72434 6.95654 3.04348 6.95654C1.36261 6.95654 0 8.31915 0 10C0 11.6809 1.36261 13.0435 3.04348 13.0435Z" fill="white"/>
<path fill-rule="evenodd" clip-rule="evenodd" d="M3.04348 19C4.17206 19 5.08696 18.0851 5.08696 16.9566C5.08696 15.828 4.17206 14.9131 3.04348 14.9131C1.9149 14.9131 1 15.828 1 16.9566C1 18.0851 1.9149 19 3.04348 19ZM3.04348 20C4.72434 20 6.08696 18.6374 6.08696 16.9566C6.08696 15.2757 4.72434 13.9131 3.04348 13.9131C1.36261 13.9131 0 15.2757 0 16.9566C0 18.6374 1.36261 20 3.04348 20Z" fill="white"/>
<path fill-rule="evenodd" clip-rule="evenodd" d="M10 5.08696C11.1286 5.08696 12.0435 4.17206 12.0435 3.04348C12.0435 1.9149 11.1286 1 10 1C8.87144 1 7.95654 1.9149 7.95654 3.04348C7.95654 4.17206 8.87144 5.08696 10 5.08696ZM10 6.08696C11.6809 6.08696 13.0435 4.72434 13.0435 3.04348C13.0435 1.36261 11.6809 0 10 0C8.31915 0 6.95654 1.36261 6.95654 3.04348C6.95654 4.72434 8.31915 6.08696 10 6.08696Z" fill="white"/>
<path fill-rule="evenodd" clip-rule="evenodd" d="M10 12.0435C11.1286 12.0435 12.0435 11.1286 12.0435 10C12.0435 8.87144 11.1286 7.95654 10 7.95654C8.87144 7.95654 7.95654 8.87144 7.95654 10C7.95654 11.1286 8.87144 12.0435 10 12.0435ZM10 13.0435C11.6809 13.0435 13.0435 11.6809 13.0435 10C13.0435 8.31915 11.6809 6.95654 10 6.95654C8.31915 6.95654 6.95654 8.31915 6.95654 10C6.95654 11.6809 8.31915 13.0435 10 13.0435Z" fill="white"/>
<path fill-rule="evenodd" clip-rule="evenodd" d="M10 19C11.1286 19 12.0435 18.0851 12.0435 16.9566C12.0435 15.828 11.1286 14.9131 10 14.9131C8.87144 14.9131 7.95654 15.828 7.95654 16.9566C7.95654 18.0851 8.87144 19 10 19ZM10 20C11.6809 20 13.0435 18.6374 13.0435 16.9566C13.0435 15.2757 11.6809 13.9131 10 13.9131C8.31915 13.9131 6.95654 15.2757 6.95654 16.9566C6.95654 18.6374 8.31915 20 10 20Z" fill="white"/>
<path fill-rule="evenodd" clip-rule="evenodd" d="M16.9566 5.08696C18.0851 5.08696 19 4.17206 19 3.04348C19 1.9149 18.0851 1 16.9566 1C15.828 1 14.9131 1.9149 14.9131 3.04348C14.9131 4.17206 15.828 5.08696 16.9566 5.08696ZM16.9566 6.08696C18.6374 6.08696 20 4.72434 20 3.04348C20 1.36261 18.6374 0 16.9566 0C15.2757 0 13.9131 1.36261 13.9131 3.04348C13.9131 4.72434 15.2757 6.08696 16.9566 6.08696Z" fill="white"/>
<path fill-rule="evenodd" clip-rule="evenodd" d="M16.9566 12.0435C18.0851 12.0435 19 11.1286 19 10C19 8.87144 18.0851 7.95654 16.9566 7.95654C15.828 7.95654 14.9131 8.87144 14.9131 10C14.9131 11.1286 15.828 12.0435 16.9566 12.0435ZM16.9566 13.0435C18.6374 13.0435 20 11.6809 20 10C20 8.31915 18.6374 6.95654 16.9566 6.95654C15.2757 6.95654 13.9131 8.31915 13.9131 10C13.9131 11.6809 15.2757 13.0435 16.9566 13.0435Z" fill="white"/>
<path fill-rule="evenodd" clip-rule="evenodd" d="M16.9566 19C18.0851 19 19 18.0851 19 16.9566C19 15.828 18.0851 14.9131 16.9566 14.9131C15.828 14.9131 14.9131 15.828 14.9131 16.9566C14.9131 18.0851 15.828 19 16.9566 19ZM16.9566 20C18.6374 20 20 18.6374 20 16.9566C20 15.2757 18.6374 13.9131 16.9566 13.9131C15.2757 13.9131 13.9131 15.2757 13.9131 16.9566C13.9131 18.6374 15.2757 20 16.9566 20Z" fill="white"/>
</svg>
