<svg width="24" height="24" viewBox="0 0 24 24" fill="none" xmlns="http://www.w3.org/2000/svg">
<path d="M4 12.5C4 12.7761 4.22386 13 4.5 13H11.5C11.7761 13 12 12.7761 12 12.5C12 12.2239 11.7761 12 11.5 12H4.5C4.22386 12 4 12.2239 4 12.5Z" fill="white"/>
<path d="M17 12.5C17 12.2239 17.2239 12 17.5 12H19.5C19.7761 12 20 12.2239 20 12.5C20 12.7761 19.7761 13 19.5 13H17.5C17.2239 13 17 12.7761 17 12.5Z" fill="white"/>
<path fill-rule="evenodd" clip-rule="evenodd" d="M15.3399 14.4643C15.3399 14.0495 15.6797 13.7286 16.0799 13.7286H19.4399C19.8401 13.7286 20.1799 14.0495 20.1799 14.4643V14.9358C20.1799 15.3506 19.8401 15.6715 19.4399 15.6715H16.0799C15.6797 15.6715 15.3399 15.3506 15.3399 14.9358V14.4643ZM3.8199 14.4643C3.8199 14.0495 4.15969 13.7286 4.5599 13.7286H9.8399C10.2401 13.7286 10.5799 14.0495 10.5799 14.4643V14.9358C10.5799 15.3506 10.2401 15.6715 9.8399 15.6715H4.5599C4.15969 15.6715 3.8199 15.3506 3.8199 14.9358V14.4643ZM2.3999 6.68576H21.5999V5.27148C21.5999 5.01101 21.3851 4.80005 21.1199 4.80005H2.8799C2.6147 4.80005 2.3999 5.01101 2.3999 5.27148V6.68576ZM3.3999 17V8.62862H20.5999V17H3.3999ZM21.5999 7.62862V17.0572C21.5999 17.5778 21.17 18 20.6399 18H3.3599C2.8298 18 2.3999 17.5778 2.3999 17.0572V7.62862H21.5999Z" fill="white"/>
</svg>
