<svg width="19" height="19" viewBox="0 0 19 19" fill="none" xmlns="http://www.w3.org/2000/svg">
<path fill-rule="evenodd" clip-rule="evenodd" d="M8.55565 1.6501C4.74182 1.6501 1.6501 4.74182 1.6501 8.55566C1.6501 12.3695 4.74182 15.4612 8.55565 15.4612C12.3695 15.4612 15.4612 12.3695 15.4612 8.55566C15.4612 4.74182 12.3695 1.6501 8.55565 1.6501ZM0.350098 8.55566C0.350098 4.02385 4.02385 0.350098 8.55565 0.350098C13.0875 0.350098 16.7612 4.02385 16.7612 8.55566C16.7612 13.0875 13.0875 16.7612 8.55565 16.7612C4.02385 16.7612 0.350098 13.0875 0.350098 8.55566Z" fill="white"/>
<path fill-rule="evenodd" clip-rule="evenodd" d="M13.4321 13.4321C13.6859 13.1782 14.0975 13.1782 14.3513 13.4321L18.4597 17.5404C18.7135 17.7943 18.7135 18.2058 18.4597 18.4597C18.2058 18.7135 17.7943 18.7135 17.5404 18.4597L13.4321 14.3513C13.1782 14.0975 13.1782 13.6859 13.4321 13.4321Z" fill="white"/>
</svg>
