<svg width="21" height="13" viewBox="0 0 21 13" fill="none" xmlns="http://www.w3.org/2000/svg">
<path d="M20.7486 11.1153C20.7486 11.0322 20.6656 11.0322 20.6656 10.9492C20.3338 10.285 19.5872 9.4548 18.5917 8.54155C18.094 8.12644 17.8451 7.79434 17.6792 7.62829C17.4304 7.2962 17.4304 7.04714 17.5133 6.71505C17.5963 6.46598 17.9281 6.05086 18.5088 5.30365C18.8406 4.88853 19.0065 4.63947 19.2554 4.3904C20.4997 2.72995 21.0804 1.65064 20.9145 1.1525L20.8315 1.06949C20.7486 0.986464 20.6656 0.903444 20.4997 0.903444C20.3338 0.820421 20.0849 0.820421 19.8361 0.903444H16.6838C16.6008 0.903444 16.6008 0.903444 16.4349 0.903444C16.3519 0.903444 16.269 0.903444 16.269 0.903444H16.186H16.1031L16.0201 0.986459C15.9372 1.06948 15.9372 1.06948 15.9372 1.1525C15.6053 2.06575 15.1906 2.81296 14.7758 3.64319C14.5269 4.05831 14.2781 4.47343 14.0292 4.80552C13.7803 5.13761 13.6144 5.38667 13.4485 5.55272C13.2826 5.71877 13.1167 5.80179 13.0337 5.96784C12.9508 6.05086 12.7849 6.13389 12.7849 6.05086C12.7019 6.05086 12.619 6.05086 12.619 5.96784C12.536 5.88481 12.4531 5.80179 12.3701 5.71876C12.2872 5.63574 12.2871 5.4697 12.2042 5.30365C12.2042 5.1376 12.2042 4.97156 12.2042 4.88853C12.2042 4.80551 12.2042 4.55645 12.2042 4.3904C12.2042 4.14134 12.2042 3.97528 12.2042 3.89226C12.2042 3.64319 12.2042 3.31111 12.2042 2.97902C12.2042 2.64693 12.2042 2.39785 12.2042 2.2318C12.2042 2.06576 12.2042 1.81669 12.2042 1.65065C12.2042 1.40158 12.2042 1.23553 12.2042 1.1525C12.2042 1.06948 12.1213 0.903439 12.1213 0.820416C12.0383 0.737393 11.9553 0.654367 11.8724 0.571344C11.7894 0.488322 11.6235 0.488324 11.5406 0.405301C11.1258 0.322278 10.6281 0.239258 10.0474 0.239258C8.7201 0.239258 7.80759 0.322283 7.47577 0.488329C7.30986 0.571352 7.14395 0.65437 7.061 0.820416C6.89509 0.986462 6.89508 1.06949 6.97804 1.06949C7.39281 1.15251 7.72464 1.31855 7.89055 1.56762L7.97351 1.73367C8.05646 1.8167 8.05645 1.98273 8.1394 2.2318C8.22236 2.48087 8.22236 2.72994 8.22236 3.06203C8.22236 3.56017 8.22236 4.05831 8.22236 4.3904C8.22236 4.80552 8.1394 5.05458 8.1394 5.30365C8.1394 5.55272 8.05646 5.71877 7.97351 5.80179C7.89055 5.96784 7.89054 6.05086 7.80759 6.05086C7.80759 6.05086 7.80758 6.13388 7.72463 6.13388C7.64167 6.13388 7.55872 6.21691 7.39281 6.21691C7.30986 6.21691 7.14395 6.13389 7.061 6.05086C6.89509 5.96784 6.72918 5.80179 6.64622 5.63575C6.48031 5.4697 6.3144 5.22063 6.14849 4.88853C5.98258 4.55644 5.73371 4.22436 5.56779 3.72622L5.4019 3.39413C5.31894 3.22809 5.15304 2.89599 4.98712 2.48087C4.82122 2.06576 4.6553 1.73367 4.48939 1.31856C4.40644 1.15251 4.32349 1.06948 4.24054 0.986459H4.15758C4.15758 0.986459 4.07461 0.903444 3.99166 0.903444C3.9087 0.903444 3.82576 0.820416 3.7428 0.820416H0.756416C0.424596 0.820416 0.258688 0.903436 0.175733 0.986459L0.0927734 1.06949C0.0927734 1.06949 0.0927734 1.15251 0.0927734 1.23553C0.0927734 1.31855 0.0927785 1.40157 0.175733 1.56762C0.590508 2.56389 1.08824 3.56017 1.58597 4.55645C2.0837 5.4697 2.58143 6.29993 2.91325 6.88109C3.32803 7.46225 3.65984 8.04341 4.07462 8.54155C4.48939 9.03969 4.73825 9.37178 4.82121 9.53782C4.98711 9.70387 5.07007 9.78689 5.15302 9.86991L5.4019 10.119C5.56781 10.285 5.81667 10.5341 6.14849 10.7832C6.48031 11.0322 6.89508 11.2813 7.30985 11.5304C7.72463 11.7794 8.22237 11.9455 8.7201 12.1115C9.30078 12.2776 9.79851 12.3606 10.2962 12.2776H11.5406C11.7894 12.2776 11.9553 12.1946 12.1213 12.0285L12.2042 11.9455C12.2042 11.8625 12.2872 11.8625 12.2872 11.7794C12.2872 11.6964 12.2872 11.6134 12.2872 11.4474C12.2872 11.1153 12.2872 10.8662 12.3701 10.6171C12.4531 10.3681 12.4531 10.202 12.536 10.036C12.619 9.86992 12.7019 9.78689 12.7849 9.70387C12.8678 9.62084 12.9508 9.53782 12.9508 9.53782H13.0337C13.1997 9.4548 13.4485 9.53782 13.6144 9.70387C13.8633 9.86991 14.1122 10.119 14.2781 10.3681C14.444 10.6171 14.6929 10.8662 15.0247 11.1983C15.3565 11.5304 15.6054 11.7794 15.7713 11.8625L16.0201 12.0285C16.186 12.1115 16.352 12.1946 16.6008 12.2776C16.8497 12.3606 17.0156 12.3606 17.1815 12.3606L20.002 12.2776C20.2508 12.2776 20.4997 12.1946 20.6656 12.1115C20.8315 12.0285 20.9145 11.9455 20.9145 11.7794C20.9145 11.6964 20.9145 11.5304 20.9145 11.4474C20.7486 11.2813 20.7486 11.1983 20.7486 11.1153Z" fill="white"/>
</svg>
