<svg width="19" height="13" viewBox="0 0 19 13" fill="none" xmlns="http://www.w3.org/2000/svg">
<path d="M18.5917 4.91313C18.5917 4.52525 18.5271 4.07273 18.5271 3.55556C18.4625 3.03838 18.3979 2.52121 18.3333 2.06869C18.2041 1.55151 18.0104 1.16364 17.6228 0.840406C17.2998 0.517174 16.8477 0.323228 16.3955 0.258582C14.9099 0.0646425 12.7137 0 9.74239 0C6.77109 0 4.5103 0.0646425 3.08924 0.258582C2.63709 0.323228 2.18494 0.517174 1.86197 0.840406C1.539 1.16364 1.28062 1.55151 1.15144 2.06869C1.02225 2.52121 0.957664 2.97374 0.957664 3.55556C0.89307 4.07273 0.893066 4.52525 0.893066 4.91313C0.893066 5.301 0.893066 5.75353 0.893066 6.4C0.893066 7.04646 0.893066 7.56363 0.893066 7.88687C0.893066 8.27475 0.957664 8.72728 0.957664 9.24445C1.02226 9.76162 1.08684 10.2788 1.15144 10.7313C1.28062 11.2485 1.47441 11.6364 1.86197 11.9596C2.18494 12.2828 2.63709 12.4768 3.08924 12.5414C4.5749 12.7354 6.77109 12.8 9.74239 12.8C12.7137 12.8 14.9745 12.7354 16.3955 12.5414C16.8477 12.4768 17.2998 12.2828 17.6228 11.9596C17.9458 11.6364 18.2041 11.2485 18.3333 10.7313C18.4625 10.2788 18.5271 9.82627 18.5271 9.24445C18.5917 8.72728 18.5917 8.27475 18.5917 7.88687C18.5917 7.49899 18.5917 7.04646 18.5917 6.4C18.5917 5.75353 18.5917 5.23636 18.5917 4.91313ZM13.1658 6.91717L8.06296 10.0848C7.99836 10.1495 7.86918 10.2141 7.73999 10.2141C7.6108 10.2141 7.54621 10.2141 7.41702 10.1495C7.22324 10.0202 7.09405 9.82627 7.09405 9.56768V3.16767C7.09405 2.90909 7.22324 2.71515 7.41702 2.58586C7.6108 2.45657 7.86918 2.45657 8.06296 2.58586L13.1658 5.75353C13.3596 5.88282 13.4888 6.07677 13.4888 6.27071C13.4888 6.46464 13.3596 6.78788 13.1658 6.91717Z" fill="white"/>
</svg>
